<mxfile host="app.diagrams.net" modified="2024-03-14T00:37:23.972Z" agent="Mozilla/5.0 (Windows NT 10.0; Win64; x64) AppleWebKit/537.36 (KHTML, like Gecko) Chrome/122.0.0.0 Safari/537.36 Edg/122.0.0.0" version="24.0.5" etag="v0Xdy40KzGoTm0mRPI-j" type="github">
  <diagram name="페이지-1" id="6WWxD6QV64G5uI2Wsk3W">
    <mxGraphModel>
      <root>
        <mxCell id="0" />
        <mxCell id="1" parent="0" />
      </root>
    </mxGraphModel>
  </diagram>
</mxfile>
